<svg xmlns="http://www.w3.org/2000/svg" width="432" height="114" viewBox="0 0 432 114">
  <defs>
    <style>
      .cls-1, .cls-2 {
        fill: #fff;
      }

      .cls-2 {
        fill-rule: evenodd;
      }
    </style>
  </defs>
  <circle class="cls-1" cx="394.5" cy="72.5" r="9.5"/>
  <path id="MERCH" class="cls-2" d="M287.7,81.74l-2.009,5.617-2.062-5.617h-3.6V91.1h2.934V86.432L284.4,91.1h2.511l1.441-4.666V91.1h2.921V81.74H287.7Zm16.429,2.339V81.74h-6.238V91.1h6.238v-2.34h-3.3V87.437h2.908V85.23h-2.908V84.08h3.3ZM318.453,91.1l-2.036-3.582a2.876,2.876,0,0,0,1.5-1.044,2.782,2.782,0,0,0,.522-1.665,3.068,3.068,0,0,0-.4-1.566,2.8,2.8,0,0,0-1.21-1.1,4.3,4.3,0,0,0-1.943-.4h-4.361V91.1h2.934V87.741h0.013l1.758,3.357h3.225Zm-5-6.9h1.163a0.868,0.868,0,0,1,.628.212,0.921,0.921,0,0,1,.006,1.183,0.916,0.916,0,0,1-.634.192h-1.163V84.2ZM324.4,86.406a5.3,5.3,0,0,0,.561,2.472,4.061,4.061,0,0,0,1.606,1.685,4.842,4.842,0,0,0,2.459.6,5,5,0,0,0,2.174-.456,4.018,4.018,0,0,0,1.56-1.289,4.667,4.667,0,0,0,.8-1.943h-3.092a1.681,1.681,0,0,1-.6.72,1.58,1.58,0,0,1-.892.258,1.4,1.4,0,0,1-1.17-.555,2.815,2.815,0,0,1,0-2.987,1.4,1.4,0,0,1,1.17-.555,1.58,1.58,0,0,1,.892.258,1.682,1.682,0,0,1,.6.72h3.092a4.667,4.667,0,0,0-.8-1.943A4.018,4.018,0,0,0,331.2,82.1a5,5,0,0,0-2.174-.456,4.844,4.844,0,0,0-2.459.6,4.063,4.063,0,0,0-1.606,1.685,5.3,5.3,0,0,0-.561,2.472h0Zm21.227-4.666v3.37h-2.789V81.74h-2.934V91.1h2.934V87.45h2.789V91.1h2.934V81.74h-2.934Z"/>
  <path id="_Max_Knox_" data-name="{Max Knox}" class="cls-2" d="M25.363,63.074q5.473,0.177,5.473,4.179a52.172,52.172,0,0,1-.588,5.591q-0.3,1.825-.53,3.8a29.845,29.845,0,0,0-.235,3.5q0,5.414,3.325,8.416t8.975,3h4.355V82.2H44.018a3.724,3.724,0,0,1-2.707-.824,3.268,3.268,0,0,1-.824-2.413q0-1.176.471-5.3,0.53-5.3.53-6.886a9.273,9.273,0,0,0-1.559-5.532,7.135,7.135,0,0,0-4.737-2.766V58.366A7.129,7.129,0,0,0,39.928,55.6a9.271,9.271,0,0,0,1.56-5.532q0-1.589-.53-6.885-0.472-4.119-.471-5.238a3.356,3.356,0,0,1,.824-2.472,3.724,3.724,0,0,1,2.707-.824h2.119V25.292H41.782q-5.65,0-8.975,3t-3.325,8.416a29.832,29.832,0,0,0,.235,3.5q0.234,1.972.53,3.8a51.812,51.812,0,0,1,.588,5.65,3.593,3.593,0,0,1-1.265,3,7.1,7.1,0,0,1-4.208,1.059v9.357ZM87.686,37.062L77.5,64.016,67.088,37.062H53.14v41.49H64.675V55.482l7.886,23.07h9.652L90.04,55.659V78.552h11.535V37.062H87.686Zm18.6,24.953a20.483,20.483,0,0,0,1.854,8.975A14.054,14.054,0,0,0,113.2,76.9a12.947,12.947,0,0,0,7.15,2.06,12.113,12.113,0,0,0,5.856-1.353,9.752,9.752,0,0,0,3.855-3.649v4.59h11.535V45.537H130.059v4.59a9.805,9.805,0,0,0-3.826-3.649,12.08,12.08,0,0,0-5.885-1.354,12.955,12.955,0,0,0-7.15,2.06,14.1,14.1,0,0,0-5.061,5.885,20.294,20.294,0,0,0-1.854,8.945h0Zm23.776,0a7.049,7.049,0,0,1-1.736,5.061,5.661,5.661,0,0,1-4.267,1.824,5.589,5.589,0,0,1-4.3-1.854,7.136,7.136,0,0,1-1.707-5.032,7.008,7.008,0,0,1,1.707-5.032,5.97,5.97,0,0,1,8.563.029,6.966,6.966,0,0,1,1.736,5h0ZM181.73,78.552L170.078,62.368l11.24-16.831H168.665l-4.767,8.3-5.944-8.3H145.007l11.476,15.89-11,17.126h12.653l4.708-8.3,5.944,8.3H181.73Zm53.143,0L218.865,57.189l15.242-20.127h-13.3L207.919,54.953V37.062H196.384v41.49h11.535V60.367l13.006,18.185h13.948Zm25.835-33.31a12.43,12.43,0,0,0-5.944,1.383,11.37,11.37,0,0,0-4.119,3.619V45.537H239.11V78.552h11.535V60.838a6.36,6.36,0,0,1,1.471-4.443,5.211,5.211,0,0,1,4.061-1.618,5.07,5.07,0,0,1,3.943,1.618,6.364,6.364,0,0,1,1.471,4.443V78.552h11.535V59.308q0-6.473-3.355-10.269a11.484,11.484,0,0,0-9.063-3.8h0Zm34.134,33.722a18.9,18.9,0,0,0,8.886-2.06,15.277,15.277,0,0,0,6.209-5.915,17.386,17.386,0,0,0,2.266-8.975,17.231,17.231,0,0,0-2.266-8.945,15.387,15.387,0,0,0-6.179-5.885,20.073,20.073,0,0,0-17.714,0,15.377,15.377,0,0,0-6.18,5.885,17.221,17.221,0,0,0-2.266,8.945,17.509,17.509,0,0,0,2.237,9,15.164,15.164,0,0,0,6.15,5.885,18.717,18.717,0,0,0,8.857,2.06h0Zm0-10a4.978,4.978,0,0,1-3.943-1.766,7.7,7.7,0,0,1-1.53-5.179,7.407,7.407,0,0,1,1.589-5.12,5.09,5.09,0,0,1,3.943-1.766,5.182,5.182,0,0,1,3.972,1.766,7.322,7.322,0,0,1,1.619,5.12,7.435,7.435,0,0,1-1.619,5.15,5.2,5.2,0,0,1-4.031,1.8h0Zm55.614,9.593L338.8,62.368l11.24-16.831H337.391l-4.767,8.3-5.944-8.3H313.733l11.476,15.89-11,17.126h12.653l4.708-8.3,5.944,8.3h12.947Zm24.6-15.478V53.717a7.1,7.1,0,0,1-4.208-1.059,3.591,3.591,0,0,1-1.265-3,51.687,51.687,0,0,1,.588-5.65q0.294-1.824.53-3.8a30.086,30.086,0,0,0,.235-3.5q0-5.414-3.325-8.416t-8.975-3h-4.355v9.357H356.4a3.728,3.728,0,0,1,2.707.824,3.36,3.36,0,0,1,.824,2.472q0,1.119-.471,5.238-0.529,5.3-.529,6.886A9.264,9.264,0,0,0,360.49,55.6a7.127,7.127,0,0,0,4.738,2.766v0.118a7.133,7.133,0,0,0-4.738,2.766,9.266,9.266,0,0,0-1.559,5.532q0,1.589.529,6.886,0.471,4.12.471,5.3a3.272,3.272,0,0,1-.824,2.413,3.728,3.728,0,0,1-2.707.824h-2.119v9.357h4.355q5.651,0,8.975-3t3.325-8.416a30.1,30.1,0,0,0-.235-3.5q-0.236-1.971-.53-3.8a52.041,52.041,0,0,1-.588-5.591q0-4,5.473-4.179h0Z"/>
</svg>
